<svg width="100" height="100" viewBox="0 0 100 100" fill="none" xmlns="http://www.w3.org/2000/svg">
        <g id="Frame 1">
            <rect width="100" height="100" fill="white"/>
            <g id="Group 1">
              <path id="horizStroke" class="tempLine" d="M32.7139 33.3501H65.9818"/>
              <path id="uprightL" class="tempLine" d="M31.6349 34.0694C31.6349 36.8534 31.6349 39.6374 31.6349 42.4214C31.6349 43.4737 31.6349 44.526 31.6349 45.5783C31.6349 45.9818 31.4664 46.8386 31.6349 47.1967C31.94 47.8451 38.0017 47.3766 38.788 47.3766C42.1581 47.3766 45.5282 47.3766 48.8983 47.3766C54.8325 47.3766 60.7668 47.3766 66.7011 47.3766"/>
  
              <path id="horizStroke" style="--order: 1" class="animLine" d="M32.7139 33.3501H65.9818"/>
              <path id="uprightL" style="--order: 2" class="animLine" d="M31.6349 34.0694C31.6349 36.8534 31.6349 39.6374 31.6349 42.4214C31.6349 43.4737 31.6349 44.526 31.6349 45.5783C31.6349 45.9818 31.4664 46.8386 31.6349 47.1967C31.94 47.8451 38.0017 47.3766 38.788 47.3766C42.1581 47.3766 45.5282 47.3766 48.8983 47.3766C54.8325 47.3766 60.7668 47.3766 66.7011 47.3766"/>
                
            </g>
        </g>
    </svg>